<svg
  width="128"
  height="128"
  viewBox="0 0 128 128"
  fill="none"
  xmlns="http://www.w3.org/2000/svg"
>
  <defs>
    <linearGradient
      id="wepromptGradient"
      x1="0%"
      y1="0%"
      x2="100%"
      y2="100%"
    >
      <stop offset="0%" stop-color="#a855f7" />
      <stop offset="50%" stop-color="#6366f1" />
      <stop offset="100%" stop-color="#3b82f6" />
    </linearGradient>
  </defs>

  <!-- W 形主体 -->
  <path
    d="M16 28
       C16 22 22 20 26 22
       L42 78
       L58 34
       C60 28 68 28 70 34
       L86 78
       L102 22
       C106 20 112 22 112 28
       L92 100
       C90 106 82 106 80 100
       L64 56
       L48 100
       C46 106 38 106 36 100
       L16 28Z"
    fill="url(#wepromptGradient)"
  />

  <!-- 对话气泡 -->
  <path
    d="M72 52
       H112
       C118 52 120 56 120 60
       V86
       C120 90 118 94 112 94
       H88
       L76 104
       V94
       H72
       C66 94 64 90 64 86
       V60
       C64 56 66 52 72 52Z"
    fill="url(#wepromptGradient)"
  />

  <!-- 灯泡 -->
  <path
    d="M92 64
       C86 64 82 68 82 74
       C82 78 84 80 86 82
       V86
       H98
       V82
       C100 80 102 78 102 74
       C102 68 98 64 92 64Z
       M88 90H96"
    stroke="white"
    stroke-width="4"
    stroke-linecap="round"
    stroke-linejoin="round"
    fill="none"
  />
</svg>